<?xml version="1.0" encoding="UTF-8" standalone="no"?>
<svg viewBox="0 0 871.78998 75.010002" xmlns="http://www.w3.org/2000/svg" xmlns:xlink="http://www.w3.org/1999/xlink">
<defs>
<filter height="1.07556" id="filter3655" width="1.29143" x="-.14571" y="-.03778">
<feGaussianBlur stdDeviation=".68312"/>
</filter>
<linearGradient id="linearGradient3676">
<stop offset="0" stop-color="#fff"/>
<stop offset="1" stop-color="#b3b3b3"/>
</linearGradient>
<linearGradient id="linearGradient2827">
<stop offset="0" stop-color="#dcb028"/>
<stop offset="1" stop-color="#f0dc5c"/>
</linearGradient>
<linearGradient gradientUnits="userSpaceOnUse" id="linearGradient4129" x2="0" y1="628.54773" y2="579.79303">
<stop offset="0"/>
<stop offset="1" stop-color="#4d4d4d"/>
</linearGradient>
<linearGradient gradientUnits="userSpaceOnUse" id="linearGradient4131" x1="535.32123" x2="530.77496" y1="383.80399" y2="262.19171">
<stop offset="0" stop-color="#ccc"/>
<stop offset="1" stop-color="#f2f2f2"/>
</linearGradient>
<linearGradient gradientUnits="userSpaceOnUse" id="linearGradient4133" x2="0" y1="694.76288" y2="587.9259">
<stop offset="0"/>
<stop offset="1" stop-color="#666" stop-opacity="0"/>
</linearGradient>
<linearGradient gradientUnits="userSpaceOnUse" id="linearGradient4135" x2="0" xlink:href="#linearGradient2827" y1="640.2692" y2="595.90014"/>
<linearGradient gradientUnits="userSpaceOnUse" id="linearGradient4137" x1="738.83348" x2="752.03398" xlink:href="#linearGradient3676"/>
<linearGradient gradientUnits="userSpaceOnUse" id="linearGradient4139" x1="755.61359" x2="768.81409" xlink:href="#linearGradient3676"/>
<linearGradient gradientUnits="userSpaceOnUse" id="linearGradient4141" x1="773.08244" x2="786.28294" xlink:href="#linearGradient3676"/>
<linearGradient gradientTransform="matrix(.99976,-.02183,.02183,.99976,45.10476,7.27865)" gradientUnits="userSpaceOnUse" id="linearGradient4143" x1="732.27747" x2="745.47797" xlink:href="#linearGradient3676"/>
<linearGradient gradientTransform="matrix(.99976,-.02183,.02183,.99976,62.15487,5.69514)" gradientUnits="userSpaceOnUse" id="linearGradient4145" x1="732.27747" x2="745.47797" xlink:href="#linearGradient3676"/>
<linearGradient gradientTransform="matrix(.99976,-.02183,.02183,.99976,78.88648,4.43238)" gradientUnits="userSpaceOnUse" id="linearGradient4147" x1="732.27747" x2="745.47797" xlink:href="#linearGradient3676"/>
<linearGradient gradientTransform="matrix(.9984,-.05661,.05661,.9984,75.34341,28.1369)" gradientUnits="userSpaceOnUse" id="linearGradient4149" x1="732.27747" x2="745.47797" xlink:href="#linearGradient3676"/>
<linearGradient gradientTransform="matrix(.9984,-.05661,.05661,.9984,92.39537,25.28773)" gradientUnits="userSpaceOnUse" id="linearGradient4151" x1="732.27747" x2="745.47797" xlink:href="#linearGradient3676"/>
<linearGradient gradientTransform="matrix(.99354,-.11351,.11351,.99354,77.06548,68.13661)" gradientUnits="userSpaceOnUse" id="linearGradient4153" x1="732.27747" x2="745.47797" xlink:href="#linearGradient3676"/>
<linearGradient gradientTransform="matrix(.99354,-.11351,.11351,.99354,93.48949,64.96693)" gradientUnits="userSpaceOnUse" id="linearGradient4155" x1="732.27747" x2="745.47797" xlink:href="#linearGradient3676"/>
<linearGradient gradientTransform="matrix(.99354,-.10661,.11351,.93319,110.2211,94.30111)" gradientUnits="userSpaceOnUse" id="linearGradient4157" x1="732.27747" x2="745.47797" xlink:href="#linearGradient3676"/>
<linearGradient gradientTransform="matrix(.99354,-.10661,.11351,.93319,126.32132,91.03834)" gradientUnits="userSpaceOnUse" id="linearGradient4159" x1="732.27747" x2="745.47797" xlink:href="#linearGradient3676"/>
<linearGradient gradientUnits="userSpaceOnUse" id="linearGradient4161" x1="834.58271" x2="834.71841" xlink:href="#linearGradient2827" y1="746.68057" y2="724.50554"/>
</defs>
<g transform="translate(-84.73061,-573.2701)">
<path d="m720.02116,606.51446c0,0 75.9486-4.67637 112.67688-9.16122s107.30095-17.56024 107.30095-17.56024l3.73986,19.50772c0,0-70.63236,15.05527-107.35574,19.24725s-111.4486,9.99974-111.4486,9.99974l-4.91335-22.03325z" fill="url(#linearGradient4129)" fill-rule="evenodd"/>
<g transform="matrix(.72089,0,0,.72089,38.76436,165.38341)">
<path d="m72.85714,304.09448c0,0 291.42857,20 436.42857,20s433.57143-20 433.57143-20v31.42858c0,0-288.57143,19.99999-433.57143,19.99999s-381.13044-18.50323-407.85714-22.85714c-17.07925-2.7823-28.57143-28.57143-28.57143-28.57143z" fill="url(#linearGradient4131)" fill-rule="evenodd" transform="translate(0,308.2677)"/>
<path d="m90.35797,613.85442c0,0 283.76214,18.44592 426.39223,18.44592s425.7085-19.93816 425.7085-19.93816l.0203,10.51804c0,0-282.74087,20.1689-425.37097,20.1689s-374.58395-16.4083-400.87382-18.725c-16.80011-1.48045-25.87625-10.4697-25.87625-10.4697h1e-005z" fill="url(#linearGradient4133)" fill-rule="evenodd"/>
</g>
<path d="m92.25438,606.84681c0,0 .38923.81783.96875,1.9375-.08407-.64451-.14272-1.27514-.1875-1.875l-.78125-.0625zm627.18751,0-.46875.0312 .40625,17.09375c0,0-3.78006-4.1373-10.29634-2.13701-1.99608.61273-4.08636,2.68469-6.77858,2.8626-2.75526.18209-6.61103-1.60455-9.94996-1.38746-2.49581.16228-5.54453,4.70612-8.73725,1.30797-1.82042-1.93755-5.43597-.84482-8.33878-.66107-8.72191,2.67066-5.06395,3.78495-13.50103,2.20989-2.46782.15217-4.59593-2.873-8.76521-1.12591-2.15604.90346-5.90316,1.08108-8.32134,1.22662-3.62422.21813-4.16027.43979-9.15042,2.25403-3.43458,1.24869-7.37163.8307-11.1613-1.33497-3.61603-2.06644-8.79296-2.6969-13.49574.32884-2.9737,1.91326-7.90131,3.57938-11.11864.9967-1.94649-1.56252-7.388.27547-10.31257,2.4004-3.92779,2.85386-5.38346-.66611-9.93875-1.99578-2.91982-.85228-9.87098,1.06341-11.94191,3.33197-2.76278,3.02645-6.32797-.7057-11.94847-.54416-4.09021.11756-11.34116-3.20356-15.04976,2.1588-2.19238,3.17002-6.93611-5.17656-10.78913-1.42359-3.22839,3.14456-8.6287,1.61988-13.11523,1.81321-4.9256.21223-10.80376-3.80503-15.28622.3656-3.5217,3.27669-12.71311-.0698-16.62868-1.95865-3.97648-1.91818-10.65031,8.78569-14.97777,4.55707-3.5595-3.4782-5.51429-3.82853-11.53822-2.10018-4.66268,1.33779-6.13982,5.45348-9.6192,3.177-2.81779-1.84361-11.75023-5.04207-13.81736-3.391-3.39665,2.71299-7.39976.54461-11.53036.59317-3.39326.0399-7.23055,2.30254-10.45999,2.31854-2.05896.0102-8.3946,2.18183-10.06755,1.10989-6.20365-3.975-8.50477-5.72813-11.61309-2.54673-2.29191,2.3458-6.3246,4.20057-9.59754,1.74134-2.19888-1.65219-8.45323-5.30299-9.93482-2.91214-1.67229,2.6986-8.30014,4.31451-11.27767,2.21873-3.84657-2.70746-8.94825,3.14506-13.37009-1.37794-2.66351-2.72445-9.34523-2.32036-12.30943.16476-3.17007,2.65773-6.06404,2.79948-10.06682.27717-2.45627-1.54792-5.39091,1.81301-9.55173-.49243-3.81881-2.11594-8.61724-4.16171-13.00421-1.9691-2.96822,1.48352-6.51028-1.16529-10.22759-.52366-4.17587.72078-7.27421,3.87536-11.49994.0907-1.57896-1.41413-8.23802-2.39184-9.69762-.86156-2.80301,2.93877-9.93656,1.22549-15.47846-1.41236-5.67975-2.70345-10.47737,4.4892-16.23474.5616-4.78692-3.26556-10.27124-5.88759-15.18999-1.22603-1.44398,1.36848-9.86317-3.62811-13.83519-1.39744-3.02378,1.69814-9.94237.39041-13.58638-2.68213-3.51055-2.96001-9.85851,1.38908-13.4283-1.29304-4.29878-3.22983-12.16742,4.76217-16.35539,2.02054-3.95203-2.58717-9.53615-3.72874-13.53422-2.06211-3.85731,1.60796-9.01966.79214-13.45991-2.34564-2.77355-1.95997-8.23371,1.25557-12.15531-.51328-4.05951-1.83106-7.4685-3.13494-11.40051-1.52745-5.41852,2.21522-15.83927-2.0773-15.25572.30443 4.73909,1.97342 5.35363,6.79419 11.34969,6.28017 19.26711,3.13871 190.32114,16.46875 294.85074,16.46875s312.5625-14.40625 312.5625-14.40625v-22.65625 7e-005 6e-005-3e-005-.00027 5e-005z" fill="#ececec" fill-rule="evenodd"/>
<path d="m722.35742,595.90015a5.67511,5.72533 0 0,1 5.67511,5.72533v32.9184a5.67511,5.72533 0 0,1 -5.67511,5.72533 5.67511,5.72533 0 0,1 -5.67511-5.72533v-32.9184a5.67511,5.72533 0 0,1 5.67511-5.72533" fill="url(#linearGradient4135)" fill-rule="evenodd"/>
<path d="m948.87503,606.91931a5.6257,7.80379 0 0,1 5.6257,7.80379v27.79069a5.6257,7.80379 0 0,1 -5.6257,7.80379 5.6257,7.80379 0 0,1 -5.6257-7.80379v-27.79069a5.6257,7.80379 0 0,1 5.6257-7.80379" fill="#f2f2f2" fill-rule="evenodd" filter="url(#filter3655)" opacity=".5" transform="matrix(.72089,0,0,.72089,38.76436,165.38341)"/>
<path d="m738.83349,617.04754 5.90443-10.91419 7.29605,9.85878-6.36727,11.1717-6.83321-10.11629z" fill="url(#linearGradient4137)" fill-rule="evenodd"/>
<path d="m755.6136,615.57843 5.90443-10.91419 7.29605,9.85878-6.36727,11.1717-6.83321-10.11629z" fill="url(#linearGradient4139)" fill-rule="evenodd"/>
<path d="m773.08245,613.99997 5.90443-10.91419 7.29605,9.85878-6.36727,11.1717-6.83321-10.11629z" fill="url(#linearGradient4141)" fill-rule="evenodd"/>
<path d="m790.77141,612.56549 5.6648-11.04047 7.5095,9.69718-6.12191,11.30802-7.05239-9.96473z" fill="url(#linearGradient4143)" fill-rule="evenodd"/>
<path d="m807.82152,610.98199 5.6648-11.04047 7.5095,9.69718-6.12191,11.30802-7.05239-9.96473z" fill="url(#linearGradient4145)" fill-rule="evenodd"/>
<path d="m824.55313,609.71922 5.6648-11.04047 7.5095,9.69718-6.12191,11.30802-7.05239-9.96473z" fill="url(#linearGradient4147)" fill-rule="evenodd"/>
<path d="m841.62314,607.10692 5.27714-11.23093 7.84243,9.42997-5.72467,11.51422-7.3949-9.71326z" fill="url(#linearGradient4149)" fill-rule="evenodd"/>
<path d="m858.6751,604.25775 5.27714-11.23093 7.84243,9.42997-5.72467,11.51422-7.3949-9.71326z" fill="url(#linearGradient4151)" fill-rule="evenodd"/>
<path d="m875.14502,602.42113 4.62744-11.51385 8.36794,8.96693-5.05807,11.82222-7.93731-9.2753z" fill="url(#linearGradient4153)" fill-rule="evenodd"/>
<path d="m891.56904,599.25145 4.62744-11.51385 8.36794,8.96693-5.05807,11.82222-7.93731-9.2753z" fill="url(#linearGradient4155)" fill-rule="evenodd"/>
<path d="m908.30065,596.13241 4.62744-10.81448 8.36794,8.42227-5.05807,11.10412-7.93731-8.71191z" fill="url(#linearGradient4157)" fill-rule="evenodd"/>
<path d="m924.40087,592.86964 4.62744-10.81448 8.36794,8.42227-5.05807,11.10412-7.93731-8.71191z" fill="url(#linearGradient4159)" fill-rule="evenodd"/>
<path d="m833.94733,724.50549h1.54227a1.91217,1.91217 0 0,1 1.91217,1.91217v18.35064a1.91217,1.91217 0 0,1 -1.91217,1.91217h-1.54227a1.91217,1.91217 0 0,1 -1.91217-1.91217v-18.35064a1.91217,1.91217 0 0,1 1.91217-1.91217" fill="url(#linearGradient4161)" fill-rule="evenodd" transform="matrix(.9865,-.16374,.16374,.9865,0,0)"/>
<path d="m948.87503,606.91931a5.6257,15.7104 0 0,1 5.6257,15.7104v11.97745a5.6257,15.7104 0 0,1 -5.6257,15.7104 5.6257,15.7104 0 0,1 -5.6257-15.7104v-11.97745a5.6257,15.7104 0 0,1 5.6257-15.7104" fill="#f2f2f2" fill-rule="evenodd" filter="url(#filter3655)" opacity=".5" transform="matrix(.35325,-.05863,.05863,.35325,571.9774,422.8455)"/>
</g>
</svg>
