<?xml version="1.0" encoding="UTF-8" standalone="no"?>
<svg
   xmlns:dc="http://purl.org/dc/elements/1.1/"
   xmlns:cc="http://creativecommons.org/ns#"
   xmlns:rdf="http://www.w3.org/1999/02/22-rdf-syntax-ns#"
   xmlns:svg="http://www.w3.org/2000/svg"
   xmlns="http://www.w3.org/2000/svg"
   xmlns:xlink="http://www.w3.org/1999/xlink"
   xmlns:sodipodi="http://sodipodi.sourceforge.net/DTD/sodipodi-0.dtd"
   xmlns:inkscape="http://www.inkscape.org/namespaces/inkscape"
   viewBox="0 0 871.78998 75.010002"
   id="svg2"
   version="1.1"
   inkscape:version="0.91 r13725"
   sodipodi:docname="katana-flip.svg">
  <metadata
     id="metadata94">
    <rdf:RDF>
      <cc:Work
         rdf:about="">
        <dc:format>image/svg+xml</dc:format>
        <dc:type
           rdf:resource="http://purl.org/dc/dcmitype/StillImage" />
        <dc:title></dc:title>
      </cc:Work>
    </rdf:RDF>
  </metadata>
  <sodipodi:namedview
     pagecolor="#ffffff"
     bordercolor="#666666"
     borderopacity="1"
     objecttolerance="10"
     gridtolerance="10"
     guidetolerance="10"
     inkscape:pageopacity="0"
     inkscape:pageshadow="2"
     inkscape:window-width="1920"
     inkscape:window-height="1017"
     id="namedview92"
     showgrid="false"
     inkscape:zoom="0.33379599"
     inkscape:cx="435.89499"
     inkscape:cy="37.505001"
     inkscape:window-x="-8"
     inkscape:window-y="-8"
     inkscape:window-maximized="1"
     inkscape:current-layer="svg2" />
  <defs
     id="defs4">
    <filter
       height="1.07556"
       id="filter3655"
       width="1.29143"
       x="-.14571"
       y="-.03778">
      <feGaussianBlur
         stdDeviation=".68312"
         id="feGaussianBlur7" />
    </filter>
    <linearGradient
       id="linearGradient3676">
      <stop
         offset="0"
         stop-color="#fff"
         id="stop10" />
      <stop
         offset="1"
         stop-color="#b3b3b3"
         id="stop12" />
    </linearGradient>
    <linearGradient
       id="linearGradient2827">
      <stop
         offset="0"
         stop-color="#dcb028"
         id="stop15" />
      <stop
         offset="1"
         stop-color="#f0dc5c"
         id="stop17" />
    </linearGradient>
    <linearGradient
       gradientUnits="userSpaceOnUse"
       id="linearGradient4129"
       x2="0"
       y1="628.54773"
       y2="579.79303">
      <stop
         offset="0"
         id="stop20" />
      <stop
         offset="1"
         stop-color="#4d4d4d"
         id="stop22" />
    </linearGradient>
    <linearGradient
       gradientUnits="userSpaceOnUse"
       id="linearGradient4131"
       x1="535.32123"
       x2="530.77496"
       y1="383.80399"
       y2="262.19171">
      <stop
         offset="0"
         stop-color="#ccc"
         id="stop25" />
      <stop
         offset="1"
         stop-color="#f2f2f2"
         id="stop27" />
    </linearGradient>
    <linearGradient
       gradientUnits="userSpaceOnUse"
       id="linearGradient4133"
       x2="0"
       y1="694.76288"
       y2="587.9259">
      <stop
         offset="0"
         id="stop30" />
      <stop
         offset="1"
         stop-color="#666"
         stop-opacity="0"
         id="stop32" />
    </linearGradient>
    <linearGradient
       gradientUnits="userSpaceOnUse"
       id="linearGradient4135"
       x2="0"
       xlink:href="#linearGradient2827"
       y1="640.2692"
       y2="595.90014" />
    <linearGradient
       gradientUnits="userSpaceOnUse"
       id="linearGradient4137"
       x1="738.83348"
       x2="752.03398"
       xlink:href="#linearGradient3676" />
    <linearGradient
       gradientUnits="userSpaceOnUse"
       id="linearGradient4139"
       x1="755.61359"
       x2="768.81409"
       xlink:href="#linearGradient3676" />
    <linearGradient
       gradientUnits="userSpaceOnUse"
       id="linearGradient4141"
       x1="773.08244"
       x2="786.28294"
       xlink:href="#linearGradient3676" />
    <linearGradient
       gradientTransform="matrix(0.99976,-0.02183,0.02183,0.99976,45.10476,7.27865)"
       gradientUnits="userSpaceOnUse"
       id="linearGradient4143"
       x1="732.27747"
       x2="745.47797"
       xlink:href="#linearGradient3676" />
    <linearGradient
       gradientTransform="matrix(0.99976,-0.02183,0.02183,0.99976,62.15487,5.69514)"
       gradientUnits="userSpaceOnUse"
       id="linearGradient4145"
       x1="732.27747"
       x2="745.47797"
       xlink:href="#linearGradient3676" />
    <linearGradient
       gradientTransform="matrix(0.99976,-0.02183,0.02183,0.99976,78.88648,4.43238)"
       gradientUnits="userSpaceOnUse"
       id="linearGradient4147"
       x1="732.27747"
       x2="745.47797"
       xlink:href="#linearGradient3676" />
    <linearGradient
       gradientTransform="matrix(0.9984,-0.05661,0.05661,0.9984,75.34341,28.1369)"
       gradientUnits="userSpaceOnUse"
       id="linearGradient4149"
       x1="732.27747"
       x2="745.47797"
       xlink:href="#linearGradient3676" />
    <linearGradient
       gradientTransform="matrix(0.9984,-0.05661,0.05661,0.9984,92.39537,25.28773)"
       gradientUnits="userSpaceOnUse"
       id="linearGradient4151"
       x1="732.27747"
       x2="745.47797"
       xlink:href="#linearGradient3676" />
    <linearGradient
       gradientTransform="matrix(0.99354,-0.11351,0.11351,0.99354,77.06548,68.13661)"
       gradientUnits="userSpaceOnUse"
       id="linearGradient4153"
       x1="732.27747"
       x2="745.47797"
       xlink:href="#linearGradient3676" />
    <linearGradient
       gradientTransform="matrix(0.99354,-0.11351,0.11351,0.99354,93.48949,64.96693)"
       gradientUnits="userSpaceOnUse"
       id="linearGradient4155"
       x1="732.27747"
       x2="745.47797"
       xlink:href="#linearGradient3676" />
    <linearGradient
       gradientTransform="matrix(0.99354,-0.10661,0.11351,0.93319,110.2211,94.30111)"
       gradientUnits="userSpaceOnUse"
       id="linearGradient4157"
       x1="732.27747"
       x2="745.47797"
       xlink:href="#linearGradient3676" />
    <linearGradient
       gradientTransform="matrix(0.99354,-0.10661,0.11351,0.93319,126.32132,91.03834)"
       gradientUnits="userSpaceOnUse"
       id="linearGradient4159"
       x1="732.27747"
       x2="745.47797"
       xlink:href="#linearGradient3676" />
    <linearGradient
       gradientUnits="userSpaceOnUse"
       id="linearGradient4161"
       x1="834.58271"
       x2="834.71841"
       xlink:href="#linearGradient2827"
       y1="746.68057"
       y2="724.50554" />
  </defs>
  <g
     transform="matrix(-1,0,0,-1,954.62675,648.53512)"
     id="g48">
    <path
       d="m 720.02116,606.51446 c 0,0 75.9486,-4.67637 112.67688,-9.16122 36.72828,-4.48485 107.30095,-17.56024 107.30095,-17.56024 l 3.73986,19.50772 c 0,0 -70.63236,15.05527 -107.35574,19.24725 -36.72338,4.19198 -111.4486,9.99974 -111.4486,9.99974 l -4.91335,-22.03325 z"
       id="path50"
       style="fill:url(#linearGradient4129);fill-rule:evenodd"
       inkscape:connector-curvature="0" />
    <g
       transform="matrix(0.72089,0,0,0.72089,38.76436,165.38341)"
       id="g52">
      <path
         d="m 72.85714,304.09448 c 0,0 291.42857,20 436.42857,20 145,0 433.57143,-20 433.57143,-20 l 0,31.42858 c 0,0 -288.57143,19.99999 -433.57143,19.99999 -145,0 -381.13044,-18.50323 -407.85714,-22.85714 -17.07925,-2.7823 -28.57143,-28.57143 -28.57143,-28.57143 z"
         transform="translate(0,308.2677)"
         id="path54"
         style="fill:url(#linearGradient4131);fill-rule:evenodd"
         inkscape:connector-curvature="0" />
      <path
         d="m 90.35797,613.85442 c 0,0 283.76214,18.44592 426.39223,18.44592 142.63009,0 425.7085,-19.93816 425.7085,-19.93816 l 0.0203,10.51804 c 0,0 -282.74087,20.1689 -425.37097,20.1689 -142.6301,0 -374.58395,-16.4083 -400.87382,-18.725 -16.80011,-1.48045 -25.87625,-10.4697 -25.87625,-10.4697 l 10e-6,0 z"
         id="path56"
         style="fill:url(#linearGradient4133);fill-rule:evenodd"
         inkscape:connector-curvature="0" />
    </g>
    <path
       d="m 92.25438,606.84681 c 0,0 0.38923,0.81783 0.96875,1.9375 -0.08407,-0.64451 -0.14272,-1.27514 -0.1875,-1.875 l -0.78125,-0.0625 z m 627.18751,0 -0.46875,0.0312 0.40625,17.09375 c 0,0 -3.78006,-4.1373 -10.29634,-2.13701 -1.99608,0.61273 -4.08636,2.68469 -6.77858,2.8626 -2.75526,0.18209 -6.61103,-1.60455 -9.94996,-1.38746 -2.49581,0.16228 -5.54453,4.70612 -8.73725,1.30797 -1.82042,-1.93755 -5.43597,-0.84482 -8.33878,-0.66107 -8.72191,2.67066 -5.06395,3.78495 -13.50103,2.20989 -2.46782,0.15217 -4.59593,-2.873 -8.76521,-1.12591 -2.15604,0.90346 -5.90316,1.08108 -8.32134,1.22662 -3.62422,0.21813 -4.16027,0.43979 -9.15042,2.25403 -3.43458,1.24869 -7.37163,0.8307 -11.1613,-1.33497 -3.61603,-2.06644 -8.79296,-2.6969 -13.49574,0.32884 -2.9737,1.91326 -7.90131,3.57938 -11.11864,0.9967 -1.94649,-1.56252 -7.388,0.27547 -10.31257,2.4004 -3.92779,2.85386 -5.38346,-0.66611 -9.93875,-1.99578 -2.91982,-0.85228 -9.87098,1.06341 -11.94191,3.33197 -2.76278,3.02645 -6.32797,-0.7057 -11.94847,-0.54416 -4.09021,0.11756 -11.34116,-3.20356 -15.04976,2.1588 -2.19238,3.17002 -6.93611,-5.17656 -10.78913,-1.42359 -3.22839,3.14456 -8.6287,1.61988 -13.11523,1.81321 -4.9256,0.21223 -10.80376,-3.80503 -15.28622,0.3656 -3.5217,3.27669 -12.71311,-0.0698 -16.62868,-1.95865 -3.97648,-1.91818 -10.65031,8.78569 -14.97777,4.55707 -3.5595,-3.4782 -5.51429,-3.82853 -11.53822,-2.10018 -4.66268,1.33779 -6.13982,5.45348 -9.6192,3.177 -2.81779,-1.84361 -11.75023,-5.04207 -13.81736,-3.391 -3.39665,2.71299 -7.39976,0.54461 -11.53036,0.59317 -3.39326,0.0399 -7.23055,2.30254 -10.45999,2.31854 -2.05896,0.0102 -8.3946,2.18183 -10.06755,1.10989 -6.20365,-3.975 -8.50477,-5.72813 -11.61309,-2.54673 -2.29191,2.3458 -6.3246,4.20057 -9.59754,1.74134 -2.19888,-1.65219 -8.45323,-5.30299 -9.93482,-2.91214 -1.67229,2.6986 -8.30014,4.31451 -11.27767,2.21873 -3.84657,-2.70746 -8.94825,3.14506 -13.37009,-1.37794 -2.66351,-2.72445 -9.34523,-2.32036 -12.30943,0.16476 -3.17007,2.65773 -6.06404,2.79948 -10.06682,0.27717 -2.45627,-1.54792 -5.39091,1.81301 -9.55173,-0.49243 -3.81881,-2.11594 -8.61724,-4.16171 -13.00421,-1.9691 -2.96822,1.48352 -6.51028,-1.16529 -10.22759,-0.52366 -4.17587,0.72078 -7.27421,3.87536 -11.49994,0.0907 -1.57896,-1.41413 -8.23802,-2.39184 -9.69762,-0.86156 -2.80301,2.93877 -9.93656,1.22549 -15.47846,-1.41236 -5.67975,-2.70345 -10.47737,4.4892 -16.23474,0.5616 -4.78692,-3.26556 -10.27124,-5.88759 -15.18999,-1.22603 -1.44398,1.36848 -9.86317,-3.62811 -13.83519,-1.39744 -3.02378,1.69814 -9.94237,0.39041 -13.58638,-2.68213 -3.51055,-2.96001 -9.85851,1.38908 -13.4283,-1.29304 -4.29878,-3.22983 -12.16742,4.76217 -16.35539,2.02054 -3.95203,-2.58717 -9.53615,-3.72874 -13.53422,-2.06211 -3.85731,1.60796 -9.01966,0.79214 -13.45991,-2.34564 -2.77355,-1.95997 -8.23371,1.25557 -12.15531,-0.51328 -4.05951,-1.83106 -7.4685,-3.13494 -11.40051,-1.52745 -5.41852,2.21522 -15.83927,-2.0773 -15.25572,0.30443 4.73909,1.97342 5.35363,6.79419 11.34969,6.28017 19.26711,3.13871 190.32114,16.46875 294.85074,16.46875 104.5296,0 312.5625,-14.40625 312.5625,-14.40625 l 0,-22.65625 0,7e-5 0,6e-5 0,-3e-5 0,-2.7e-4 0,5e-5 z"
       id="path58"
       inkscape:connector-curvature="0"
       style="fill:#ececec;fill-rule:evenodd" />
    <path
       d="m 722.35742,595.90015 a 5.67511,5.72533 0 0 1 5.67511,5.72533 l 0,32.9184 a 5.67511,5.72533 0 0 1 -5.67511,5.72533 5.67511,5.72533 0 0 1 -5.67511,-5.72533 l 0,-32.9184 a 5.67511,5.72533 0 0 1 5.67511,-5.72533"
       id="path60"
       style="fill:url(#linearGradient4135);fill-rule:evenodd"
       inkscape:connector-curvature="0" />
    <path
       d="m 948.87503,606.91931 a 5.6257,7.80379 0 0 1 5.6257,7.80379 l 0,27.79069 a 5.6257,7.80379 0 0 1 -5.6257,7.80379 5.6257,7.80379 0 0 1 -5.6257,-7.80379 l 0,-27.79069 a 5.6257,7.80379 0 0 1 5.6257,-7.80379"
       transform="matrix(0.72089,0,0,0.72089,38.76436,165.38341)"
       id="path62"
       inkscape:connector-curvature="0"
       style="opacity:0.5;fill:#f2f2f2;fill-rule:evenodd;filter:url(#filter3655)" />
    <path
       d="m 738.83349,617.04754 5.90443,-10.91419 7.29605,9.85878 -6.36727,11.1717 -6.83321,-10.11629 z"
       id="path64"
       style="fill:url(#linearGradient4137);fill-rule:evenodd"
       inkscape:connector-curvature="0" />
    <path
       d="m 755.6136,615.57843 5.90443,-10.91419 7.29605,9.85878 -6.36727,11.1717 -6.83321,-10.11629 z"
       id="path66"
       style="fill:url(#linearGradient4139);fill-rule:evenodd"
       inkscape:connector-curvature="0" />
    <path
       d="m 773.08245,613.99997 5.90443,-10.91419 7.29605,9.85878 -6.36727,11.1717 -6.83321,-10.11629 z"
       id="path68"
       style="fill:url(#linearGradient4141);fill-rule:evenodd"
       inkscape:connector-curvature="0" />
    <path
       d="m 790.77141,612.56549 5.6648,-11.04047 7.5095,9.69718 -6.12191,11.30802 -7.05239,-9.96473 z"
       id="path70"
       style="fill:url(#linearGradient4143);fill-rule:evenodd"
       inkscape:connector-curvature="0" />
    <path
       d="m 807.82152,610.98199 5.6648,-11.04047 7.5095,9.69718 -6.12191,11.30802 -7.05239,-9.96473 z"
       id="path72"
       style="fill:url(#linearGradient4145);fill-rule:evenodd"
       inkscape:connector-curvature="0" />
    <path
       d="m 824.55313,609.71922 5.6648,-11.04047 7.5095,9.69718 -6.12191,11.30802 -7.05239,-9.96473 z"
       id="path74"
       style="fill:url(#linearGradient4147);fill-rule:evenodd"
       inkscape:connector-curvature="0" />
    <path
       d="m 841.62314,607.10692 5.27714,-11.23093 7.84243,9.42997 -5.72467,11.51422 -7.3949,-9.71326 z"
       id="path76"
       style="fill:url(#linearGradient4149);fill-rule:evenodd"
       inkscape:connector-curvature="0" />
    <path
       d="m 858.6751,604.25775 5.27714,-11.23093 7.84243,9.42997 -5.72467,11.51422 -7.3949,-9.71326 z"
       id="path78"
       style="fill:url(#linearGradient4151);fill-rule:evenodd"
       inkscape:connector-curvature="0" />
    <path
       d="m 875.14502,602.42113 4.62744,-11.51385 8.36794,8.96693 -5.05807,11.82222 -7.93731,-9.2753 z"
       id="path80"
       style="fill:url(#linearGradient4153);fill-rule:evenodd"
       inkscape:connector-curvature="0" />
    <path
       d="m 891.56904,599.25145 4.62744,-11.51385 8.36794,8.96693 -5.05807,11.82222 -7.93731,-9.2753 z"
       id="path82"
       style="fill:url(#linearGradient4155);fill-rule:evenodd"
       inkscape:connector-curvature="0" />
    <path
       d="m 908.30065,596.13241 4.62744,-10.81448 8.36794,8.42227 -5.05807,11.10412 -7.93731,-8.71191 z"
       id="path84"
       style="fill:url(#linearGradient4157);fill-rule:evenodd"
       inkscape:connector-curvature="0" />
    <path
       d="m 924.40087,592.86964 4.62744,-10.81448 8.36794,8.42227 -5.05807,11.10412 -7.93731,-8.71191 z"
       id="path86"
       style="fill:url(#linearGradient4159);fill-rule:evenodd"
       inkscape:connector-curvature="0" />
    <path
       d="m 833.94733,724.50549 1.54227,0 a 1.91217,1.91217 0 0 1 1.91217,1.91217 l 0,18.35064 a 1.91217,1.91217 0 0 1 -1.91217,1.91217 l -1.54227,0 a 1.91217,1.91217 0 0 1 -1.91217,-1.91217 l 0,-18.35064 a 1.91217,1.91217 0 0 1 1.91217,-1.91217"
       transform="matrix(0.9865,-0.16374,0.16374,0.9865,0,0)"
       id="path88"
       style="fill:url(#linearGradient4161);fill-rule:evenodd"
       inkscape:connector-curvature="0" />
    <path
       d="m 948.87503,606.91931 a 5.6257,15.7104 0 0 1 5.6257,15.7104 l 0,11.97745 a 5.6257,15.7104 0 0 1 -5.6257,15.7104 5.6257,15.7104 0 0 1 -5.6257,-15.7104 l 0,-11.97745 a 5.6257,15.7104 0 0 1 5.6257,-15.7104"
       transform="matrix(0.35325,-0.05863,0.05863,0.35325,571.9774,422.8455)"
       id="path90"
       inkscape:connector-curvature="0"
       style="opacity:0.5;fill:#f2f2f2;fill-rule:evenodd;filter:url(#filter3655)" />
  </g>
</svg>
